{
    "asset" : {
        "generator" : "Khronos glTF Blender I/O v3.4.50",
        "version" : "2.0"
    },
    "extensionsUsed" : [
        "KHR_materials_transmission",
        "KHR_materials_specular"
    ],
    "scene" : 0,
    "scenes" : [
        {
            "name" : "Scene",
            "nodes" : [
                0
            ]
        }
    ],
    "nodes" : [
        {
            "mesh" : 0,
            "name" : "\u70b9\u4e91",
            "rotation" : [
                0.70710688829422,
                0,
                0,
                0.7071066498756409
            ]
        }
    ],
    "materials" : [
        {
            "doubleSided" : true,
            "extensions" : {
                "KHR_materials_transmission" : {
                    "transmissionFactor" : 1
                },
                "KHR_materials_specular" : {
                    "specularColorFactor" : [
                        1,
                        1,
                        1
                    ]
                }
            },
            "name" : "13___Default",
            "pbrMetallicRoughness" : {
                "baseColorFactor" : [
                    0.9960780143737793,
                    0.9960780143737793,
                    0.9960780143737793,
                    1
                ],
                "metallicFactor" : 0,
                "roughnessFactor" : 0.8999999761581421
            }
        }
    ],
    "meshes" : [
        {
            "name" : "\u70b9\u4e91",
            "primitives" : [
                {
                    "attributes" : {
                        "POSITION" : 0,
                        "TEXCOORD_0" : 1,
                        "NORMAL" : 2
                    },
                    "indices" : 3,
                    "material" : 0
                }
            ]
        }
    ],
    "accessors" : [
        {
            "bufferView" : 0,
            "componentType" : 5126,
            "count" : 455,
            "max" : [
                6760.58154296875,
                8153.46875,
                934.982666015625
            ],
            "min" : [
                -8145.36328125,
                -5654.70361328125,
                934.982666015625
            ],
            "type" : "VEC3"
        },
        {
            "bufferView" : 1,
            "componentType" : 5126,
            "count" : 455,
            "type" : "VEC2"
        },
        {
            "bufferView" : 2,
            "componentType" : 5126,
            "count" : 455,
            "type" : "VEC3"
        },
        {
            "bufferView" : 3,
            "componentType" : 5123,
            "count" : 765,
            "type" : "SCALAR"
        }
    ],
    "bufferViews" : [
        {
            "buffer" : 0,
            "byteLength" : 5460,
            "byteOffset" : 0,
            "target" : 34962
        },
        {
            "buffer" : 0,
            "byteLength" : 3640,
            "byteOffset" : 5460,
            "target" : 34962
        },
        {
            "buffer" : 0,
            "byteLength" : 5460,
            "byteOffset" : 9100,
            "target" : 34962
        },
        {
            "buffer" : 0,
            "byteLength" : 1530,
            "byteOffset" : 14560,
            "target" : 34963
        }
    ],
    "buffers" : [
        {
            "byteLength" : 16092,
            "uri" : "data:application/octet-stream;base64,"
        }
    ]
}
